<svg width="195" height="195" viewBox="0 0 64 195" fill="none" xmlns="http://www.w3.org/2000/svg">
<path d="M62 32.1429C62 48.7987 48.5602 62.2857 32 62.2857C15.4398 62.2857 2 48.7987 2 32.1429C2 15.487 15.4398 2 32 2C48.5602 2 62 15.487 62 32.1429Z" stroke="#F0DB40" stroke-width="4"/>
<path d="M62 162.857C62 179.513 48.5602 193 32 193C15.4398 193 2 179.513 2 162.857C2 146.201 15.4398 132.714 32 132.714C48.5602 132.714 62 146.201 62 162.857Z" stroke="#F0DB40" stroke-width="4"/>
<line x1="31.8666" y1="70.7143" x2="31.8666" y2="85.7143" stroke="#F0DB40" stroke-width="4"/>
<line x1="31.8666" y1="109.286" x2="31.8666" y2="124.286" stroke="#F0DB40" stroke-width="4"/>
</svg>
